<svg width="16" height="18" viewBox="0 0 16 18" fill="none" xmlns="http://www.w3.org/2000/svg">
<path d="M10.6182 13.4444H14.9932L13.7638 12.1956C13.4305 11.8569 13.2432 11.3976 13.2432 10.9186V8.11111C13.2432 5.78895 11.7823 3.81341 9.74316 3.08126V2.77778C9.74316 1.79594 8.95966 1 7.99316 1C7.02667 1 6.24316 1.79594 6.24316 2.77778V3.08126C4.20408 3.81341 2.74316 5.78895 2.74316 8.11111V10.9186C2.74316 11.3976 2.55587 11.8569 2.22248 12.1956L0.993164 13.4444H5.36816M10.6182 13.4444V14.3333C10.6182 15.8061 9.44291 17 7.99316 17C6.54342 17 5.36816 15.8061 5.36816 14.3333V13.4444M10.6182 13.4444H5.36816" stroke="#FBF8F3" stroke-linecap="round" stroke-linejoin="round"/>
</svg>
