<svg width="18" height="18" viewBox="0 0 18 18" fill="none" xmlns="http://www.w3.org/2000/svg">
<path d="M10.4821 2.17067C10.1034 0.609778 7.88294 0.609778 7.50427 2.17067C7.25894 3.17956 6.10339 3.65778 5.21805 3.11733C3.84561 2.28178 2.27583 3.85244 3.11139 5.224C3.23699 5.43 3.31217 5.66275 3.33083 5.9033C3.34948 6.14385 3.31106 6.38541 3.21872 6.60831C3.12637 6.83121 2.98269 7.02916 2.79939 7.18604C2.61608 7.34292 2.39832 7.4543 2.16383 7.51111C0.602942 7.88978 0.602942 10.1102 2.16383 10.4889C2.39811 10.5459 2.61564 10.6573 2.79874 10.8142C2.98184 10.971 3.12534 11.1689 3.21758 11.3917C3.30982 11.6144 3.3482 11.8558 3.32959 12.0962C3.31099 12.3366 3.23592 12.5692 3.1105 12.7751C2.27494 14.1476 3.84561 15.7173 5.21716 14.8818C5.42317 14.7562 5.65591 14.681 5.89647 14.6623C6.13702 14.6437 6.37857 14.6821 6.60147 14.7744C6.82437 14.8668 7.02232 15.0105 7.1792 15.1938C7.33608 15.3771 7.44746 15.5948 7.50427 15.8293C7.88294 17.3902 10.1034 17.3902 10.4821 15.8293C10.539 15.5951 10.6505 15.3775 10.8073 15.1944C10.9642 15.0113 11.1621 14.8678 11.3848 14.7756C11.6076 14.6833 11.849 14.645 12.0894 14.6636C12.3298 14.6822 12.5624 14.7572 12.7683 14.8827C14.1407 15.7182 15.7105 14.1476 14.8749 12.776C14.7493 12.57 14.6742 12.3372 14.6555 12.0967C14.6369 11.8561 14.6753 11.6146 14.7676 11.3917C14.86 11.1688 15.0036 10.9708 15.1869 10.814C15.3702 10.6571 15.588 10.5457 15.8225 10.4889C17.3834 10.1102 17.3834 7.88978 15.8225 7.51111C15.5882 7.45414 15.3707 7.34269 15.1876 7.18582C15.0045 7.02896 14.861 6.8311 14.7687 6.60834C14.6765 6.38557 14.6381 6.14419 14.6567 5.9038C14.6753 5.66341 14.7504 5.4308 14.8758 5.22489C15.7114 3.85244 14.1407 2.28267 12.7692 3.11822C12.5632 3.24382 12.3304 3.31901 12.0899 3.33766C11.8493 3.35631 11.6078 3.3179 11.3849 3.22555C11.162 3.1332 10.964 2.98953 10.8071 2.80622C10.6502 2.62291 10.5389 2.40515 10.4821 2.17067Z" stroke="#FBF8F3" stroke-linecap="round" stroke-linejoin="round"/>
<path d="M10.8785 10.8857C11.3786 10.3856 11.6595 9.70728 11.6595 9.00004C11.6595 8.2928 11.3786 7.61452 10.8785 7.11442C10.3784 6.61433 9.70008 6.33337 8.99284 6.33337C8.28559 6.33337 7.60732 6.61433 7.10722 7.11442C6.60712 7.61452 6.32617 8.2928 6.32617 9.00004C6.32617 9.70728 6.60712 10.3856 7.10722 10.8857C7.60732 11.3858 8.28559 11.6667 8.99284 11.6667C9.70008 11.6667 10.3784 11.3858 10.8785 10.8857Z" stroke="#FBF8F3" stroke-linecap="round" stroke-linejoin="round"/>
</svg>
